<svg width="16" height="16" viewBox="0 0 16 16" fill="none" xmlns="http://www.w3.org/2000/svg">
<path d="M15.8983 7.68857C15.7553 7.49303 12.3496 2.90088 7.9999 2.90088C3.65018 2.90088 0.244309 7.49304 0.101528 7.68838C0.0355528 7.77876 0 7.88777 0 7.99968C0 8.11158 0.0355528 8.22059 0.101528 8.31097C0.244309 8.5065 3.65018 13.0987 7.9999 13.0987C12.3496 13.0987 15.7553 8.50647 15.8983 8.31113C15.9643 8.22079 16 8.11177 16 7.99985C16 7.88793 15.9643 7.77891 15.8983 7.68857ZM7.9999 12.0437C4.79587 12.0437 2.02084 8.99582 1.19937 7.99941C2.01978 7.00213 4.789 3.95582 7.9999 3.95582C11.2038 3.95582 13.9786 7.00319 14.8004 8.00013C13.98 8.99738 11.2108 12.0437 7.9999 12.0437Z" fill="black" fill-opacity="0.55"/>
<path d="M7.9998 4.83496C6.25474 4.83496 4.83496 6.25474 4.83496 7.9998C4.83496 9.74487 6.25474 11.1646 7.9998 11.1646C9.74487 11.1646 11.1646 9.74487 11.1646 7.9998C11.1646 6.25474 9.74487 4.83496 7.9998 4.83496ZM7.9998 10.1097C6.83637 10.1097 5.88993 9.16321 5.88993 7.9998C5.88993 6.8364 6.8364 5.88993 7.9998 5.88993C9.16321 5.88993 10.1097 6.8364 10.1097 7.9998C10.1097 9.16321 9.16324 10.1097 7.9998 10.1097Z" fill="black" fill-opacity="0.55"/>
</svg>
